<svg id="Layer_1" data-name="Layer 1" xmlns="http://www.w3.org/2000/svg" viewBox="0 0 2000 2000"><title>Artboard 1</title><path d="M999.91,0,136.41,499.21V1500.8L999.94,2000l863.65-499.23V499.21ZM237.22,1441.13l.35-822.88,710.8,410.89.08,823.11Zm50.83-911.66L999.93,117.93c236.67,136.8,473.17,273.55,711.9,411.57l-152.3,88L1000,294.09,592.78,529.53l560,323.16L1000,941Zm1474.22,265L1204.32,1117v147.28l557.89-322.44v499.57l-710.37,410.65V1676l558-322.6v-147.3l-558.43,322.8V1029.27l710.88-411Z"/><polygon points="390.19 883.32 390 1352.68 795.67 1587.19 795.63 1117.68 390.19 883.32"/></svg>